<svg width="77" height="61" viewBox="0 0 77 61" fill="none" xmlns="http://www.w3.org/2000/svg">
<path d="M38.2486 36.0989C38.2486 33.1017 36.6218 30.3406 34.0001 28.8882L24.9391 23.8685C22.3174 22.4161 20.6905 19.6551 20.6905 16.6579V0H0V10.3742C0 13.425 1.685 16.2264 4.38005 17.6561L13.1781 22.3236C15.8731 23.7534 17.5581 26.5547 17.5581 29.6056V61H38.2486V36.0989Z" fill="white"/>
<path d="M76.9801 51.8155C76.9801 48.7894 75.3221 46.0066 72.6608 44.5661L63.3291 39.515C60.6679 38.0745 59.0098 35.2917 59.0098 32.2656V0H38.3193V25.671C38.3193 28.6971 39.9773 31.4799 42.6386 32.9204L51.9703 37.9715C54.6315 39.412 56.2896 42.1948 56.2896 45.2209V61H76.9801V51.8155Z" fill="white"/>
</svg>
